# xmcd
#
# Track frame offsets: 
#        187
#        15627
#        27947
#        57440
#        76017
#        100060
#        128525
#        150880
#        168970
#        188537
#        213505
#        231200
#        245862
#        268982
#        282897
#
# Disc length: 3958 seconds
#
# Revision: 4
# Processed by: cddbd v1.5.1PL0 Copyright (c) Steve Scherf et al.
# Submitted via: ExactAudioCopy v0.95a5
#
DISCID=bd0f740f
DTITLE=The Jimi Hendrix Experience - South Saturn Delta
DYEAR=1970
DGENRE=Rock
TTITLE0=Look Over Yonder
TTITLE1=Little Wing
TTITLE2=Here He Comes (Lover Man)
TTITLE3=South Saturn Delta
TTITLE4=Power Of Soul
TTITLE5=Message To The Universe (Message To Love)
TTITLE6=Tax Free
TTITLE7=All Along The Watchtower
TTITLE8=The Stars That Play With Laughing Sam's Dice
TTITLE9=Midnight
TTITLE10=Sweet Angel (Angel)
TTITLE11=Bleeding Heart
TTITLE12=Pali Gap
TTITLE13=Drifter's Escape
TTITLE14=Midnight Lightning
EXTD=
EXTT0=
EXTT1=
EXTT2=
EXTT3=
EXTT4=
EXTT5=
EXTT6=
EXTT7=
EXTT8=
EXTT9=
EXTT10=
EXTT11=
EXTT12=
EXTT13=
EXTT14=
PLAYORDER=
